<?xml version="1.0" encoding="UTF-8" standalone="no"?>
<svg
   xmlns:dc="http://purl.org/dc/elements/1.1/"
   xmlns:cc="http://creativecommons.org/ns#"
   xmlns:rdf="http://www.w3.org/1999/02/22-rdf-syntax-ns#"
   xmlns:svg="http://www.w3.org/2000/svg"
   xmlns="http://www.w3.org/2000/svg"
   xmlns:sodipodi="http://sodipodi.sourceforge.net/DTD/sodipodi-0.dtd"
   xmlns:inkscape="http://www.inkscape.org/namespaces/inkscape"
   width="24"
   height="24"
   viewBox="0 0 24 24"
   id="svg2"
   version="1.1"
   inkscape:version="0.91 r13725"
   sodipodi:docname="tabbar_home_selected.svg">
  <metadata
     id="metadata10">
    <rdf:RDF>
      <cc:Work
         rdf:about="">
        <dc:format>image/svg+xml</dc:format>
        <dc:type
           rdf:resource="http://purl.org/dc/dcmitype/StillImage" />
        <dc:title />
      </cc:Work>
    </rdf:RDF>
  </metadata>
  <defs
     id="defs8" />
  <sodipodi:namedview
     pagecolor="#ffffff"
     bordercolor="#666666"
     borderopacity="1"
     objecttolerance="10"
     gridtolerance="10"
     guidetolerance="10"
     inkscape:pageopacity="0"
     inkscape:pageshadow="2"
     inkscape:window-width="1920"
     inkscape:window-height="999"
     id="namedview6"
     showgrid="false"
     inkscape:zoom="9.8333333"
     inkscape:cx="-4.0677968"
     inkscape:cy="12"
     inkscape:window-x="0"
     inkscape:window-y="26"
     inkscape:window-maximized="1"
     inkscape:current-layer="svg2" />
  <path
     d="M7 21h-4v-11h4v11zm7-11h-4v11h4v-11zm7 0h-4v11h4v-11zm2 12h-22v2h22v-2zm-23-13h24l-12-9-12 9z"
     id="path4"
     style="fill:#3cc51f;fill-opacity:1" />
  <path
     style="fill:#3cc51f;fill-opacity:1"
     d="M 0.24915238,8.8811301 C 0.5051939,8.64695 11.81784,0.20529649 11.936794,0.1596494 c 0.108105,-0.0414838 11.140586,8.1030122 11.74432,8.669996 0.126411,0.1187168 -1.639805,0.1398461 -11.68983,0.1398461 -6.7078623,0 -11.79687119,-0.038296 -11.74213162,-0.088361 z"
     id="path3403"
     inkscape:connector-curvature="0" />
  <path
     style="fill:#3cc51f;fill-opacity:1"
     d="m 3.0508473,15.528814 0,-5.440678 1.9322034,0 1.9322034,0 0,5.440678 0,5.440678 -1.9322034,0 -1.9322034,0 0,-5.440678 z"
     id="path4205"
     inkscape:connector-curvature="0" />
  <path
     style="fill:#3cc51f;fill-opacity:1"
     d="m 10.067796,15.528814 0,-5.440678 1.932204,0 1.932203,0 0,5.440678 0,5.440678 -1.932203,0 -1.932204,0 0,-5.440678 z"
     id="path4207"
     inkscape:connector-curvature="0" />
  <path
     style="fill:#3cc51f;fill-opacity:1"
     d="m 17.084746,15.528814 0,-5.440678 1.932203,0 1.932203,0 0,5.440678 0,5.440678 -1.932203,0 -1.932203,0 0,-5.440678 z"
     id="path4209"
     inkscape:connector-curvature="0" />
  <path
     style="fill:#3cc51f;fill-opacity:1"
     d="m 1.016949,23.00339 0,-0.915254 10.983051,0 10.983051,0 0,0.915254 0,0.915254 -10.983051,0 -10.983051,0 0,-0.915254 z"
     id="path4211"
     inkscape:connector-curvature="0" />
</svg>
